<?xml version="1.0" encoding="UTF-8"?>
<svg xmlns="http://www.w3.org/2000/svg" id="Capa_1" height="512" viewBox="0 0 512 512" width="512">
  <g>
    <path d="m84.438 346.367h407.369c11.152 0 15.193-9.041 15.193-20.193v-54.201c0-14.001-7.801-26.813-20.212-33.293-25.317-13.219-66.992-31.84-121.03-25.918-14.574-13.623-27.259-25.268-37.954-34.961-25.988-23.552-59.284-37.448-94.306-39.322l-35.964-1.925c-31.8-1.702-63.459 6.398-90.181 23.72-16.561 10.735-33.494 25.096-45.242 43.557h-31.789c-.579 0-1.148.04-1.705.118-5.928.83-6.117 5.921-6.117 12.077l-4.373 46.8v13.568h-15.018c-1.717 0-3.109 1.392-3.109 3.109v47.266c0 1.48 1.043 2.754 2.493 3.047z" fill="#d6e0f4"></path>
    <path d="m491.788 238.68c-24.401-12.741-68.647-30.491-120.2-26.456 38.402 2.924 70.541 16.284 90.024 26.456 12.411 6.48 20.212 19.292 20.212 33.293v54.201c0 11.152-9.041 20.193-20.193 20.193h30.176c11.152 0 20.193-9.04 20.193-20.193v-39.602l-5.525-14.599c0-5.347 4.387-10.52 2.29-15.233-3.395-7.629-9.305-14.054-16.977-18.06z" fill="#b8c9ea"></path>
    <path d="m18.127 262.84h25.462c6.23 0 11.28-5.05 11.28-11.28v-6.65c0-2.317-.713-4.577-2.043-6.474l-24.166-34.478c-5.947.813-10.533 5.899-10.533 12.069z" fill="#e27f86"></path>
    <path d="m0 310.257v16.512c0 1.479 1.043 2.754 2.493 3.047l81.945 16.552h407.369c11.152 0 20.193-9.041 20.193-20.193v-15.917h-512z" fill="#a4ace3"></path>
    <path d="m481.824 326.175c0 11.152-9.041 20.193-20.193 20.193h30.176c.697 0 1.386-.035 2.065-.104 1.358-.138 2.676-.41 3.94-.803 1.897-.59 3.674-1.452 5.285-2.541 5.371-3.629 8.903-9.774 8.903-16.744v-15.918h-30.176z" fill="#8a94db"></path>
    <g fill="#717ed4">
      <path d="m242.653 208.603 123.105 4.16c-14.615-13.662-27.331-25.334-38.045-35.043-23.488-21.284-52.969-34.644-84.282-38.381 3.297 15.509 5.596 43.282-.778 69.264z"></path>
      <path d="m227.242 138.145-15.727-.842c-22.992 2.562-45.224 10.28-64.803 22.972-12.349 8.005-24.904 18.025-35.363 30.258-4.572 5.347-1.022 13.598 6.009 13.835l109.457 3.699c8.069-28.798 3.172-60.022.427-69.922z"></path>
    </g>
    <g transform="matrix(.788 -.615 .615 .788 -179.858 140.851)">
      <ellipse cx="114.708" cy="331.733" fill="#514898" rx="43.933" ry="43.933"></ellipse>
      <ellipse cx="114.708" cy="331.733" fill="#d5d9f2" rx="17.537" ry="17.537"></ellipse>
    </g>
    <g transform="matrix(.788 -.615 .615 .788 -114.838 329.78)">
      <ellipse cx="421.704" cy="331.733" fill="#514898" rx="43.933" ry="43.933"></ellipse>
      <ellipse cx="421.704" cy="331.733" fill="#d5d9f2" rx="17.537" ry="17.537"></ellipse>
    </g>
    <path d="m261.357 243.31h-5.357c-4.267 0-7.726-3.459-7.726-7.726 0-4.268 3.459-7.726 7.726-7.726h5.357c4.267 0 7.726 3.459 7.726 7.726s-3.459 7.726-7.726 7.726z" fill="#8a94db"></path>
    <path d="m145.881 243.31h-5.357c-4.267 0-7.726-3.459-7.726-7.726 0-4.268 3.459-7.726 7.726-7.726h5.357c4.267 0 7.726 3.459 7.726 7.726.001 4.267-3.459 7.726-7.726 7.726z" fill="#8a94db"></path>
    <path d="m459.699 265.719c0 10.276 17.029 22.081 38.034 22.081 5.047 0 9.86-.415 14.267-1.161v-14.666c0-5.372-1.158-10.565-3.274-15.296-3.481-.439-7.17-.677-10.993-.677-21.006 0-38.034.938-38.034 9.719z" fill="#e5936a"></path>
    <path d="m511.159 264.098c-.546-2.538-1.474-5.276-2.433-7.42-3.481-.439-7.17-.677-10.993-.677-7.019 0-13.589.107-19.233.574 2.147 4.76 3.324 9.988 3.324 15.4v13.494c4.841 1.464 10.227 2.333 15.909 2.333 5.047 0 9.86-.415 14.267-1.161v-14.666c0-2.685-.368-5.684-.841-7.877z" fill="#e27c48"></path>
  </g>
</svg>
